<svg xmlns="http://www.w3.org/2000/svg" version="1.1" xmlns:xlink="http://www.w3.org/1999/xlink" width="512" height="512" x="0" y="0" viewBox="0 0 332.786 332.786" style="enable-background:new 0 0 512 512" xml:space="preserve" class=""><g><path d="M86.564 211.083c-5.085-5.083-7-2.529-8.131-1.397-29.282 29.282-55.278 99.935-41.535 93.034 50.03-25.12 58.366-17.641 87.647-46.921 1.132-1.132 3.735-2.998-1.498-8.232l-36.483-36.484z" fill="#FFFF" ></path><path d="M244.419 210.691c-1.327-4.223 1.453-6.258 2.623-7.521C311.67 133.396 352.744 40.435 322.306 9.995c-30.278-30.276-120.372 11.998-190.127 76.16-1.38 1.271-4.1 3.678-8.966 2.662l-21.733-5.175c-6.034-1.435-14.56.977-18.946 5.363L2.789 168.749c-4.386 4.387-2.961 8.764 3.167 9.726l57.677 9.064c6.128.964 14.73-1.837 19.115-6.224 0 0 2.976-2.984 5.966.005 16.496 16.494 47.15 47.148 62.866 62.865 3.124 3.123.132 6.094.132 6.094-4.387 4.387-7.187 12.987-6.223 19.116l9.063 57.676c.963 6.13 5.34 7.555 9.726 3.168l79.746-79.746c4.385-4.386 6.798-12.91 5.361-18.944l-4.966-20.858zm-17.854-103.025c-13.507-13.507-13.507-35.404 0-48.909 13.506-13.507 35.403-13.507 48.911 0 13.505 13.504 13.505 35.402 0 48.908-13.508 13.507-35.406 13.507-48.911.001z" fill="#FFFF"></path></g></svg>